<svg width="24" height="24" viewBox="0 0 24 24" fill="none" xmlns="http://www.w3.org/2000/svg">
<mask id="mask0_61_1345" style="mask-type:alpha" maskUnits="userSpaceOnUse" x="0" y="0" width="24" height="24">
<rect width="24" height="24" fill="#D9D9D9"/>
</mask>
<g mask="url(#mask0_61_1345)">
<path d="M11.9996 22C10.7496 22 9.57878 21.7625 8.48711 21.2875C7.39544 20.8125 6.44544 20.1708 5.63711 19.3625C4.82878 18.5542 4.18711 17.6042 3.71211 16.5125C3.23711 15.4208 2.99961 14.25 2.99961 13C2.99961 11.75 3.23711 10.5792 3.71211 9.48751C4.18711 8.39584 4.82878 7.44584 5.63711 6.63751C6.44544 5.82917 7.39544 5.18751 8.48711 4.71251C9.57878 4.23751 10.7496 4.00001 11.9996 4.00001C13.2496 4.00001 14.4204 4.23751 15.5121 4.71251C16.6038 5.18751 17.5538 5.82917 18.3621 6.63751C19.1704 7.44584 19.8121 8.39584 20.2871 9.48751C20.7621 10.5792 20.9996 11.75 20.9996 13C20.9996 14.25 20.7621 15.4208 20.2871 16.5125C19.8121 17.6042 19.1704 18.5542 18.3621 19.3625C17.5538 20.1708 16.6038 20.8125 15.5121 21.2875C14.4204 21.7625 13.2496 22 11.9996 22ZM14.7996 17.2L16.1996 15.8L12.9996 12.6V8.00001H10.9996V13.4L14.7996 17.2ZM5.59961 2.35001L6.99961 3.75001L2.74961 8.00001L1.34961 6.60001L5.59961 2.35001ZM18.3996 2.35001L22.6496 6.60001L21.2496 8.00001L16.9996 3.75001L18.3996 2.35001ZM11.9996 20C13.9496 20 15.6038 19.3208 16.9621 17.9625C18.3204 16.6042 18.9996 14.95 18.9996 13C18.9996 11.05 18.3204 9.39584 16.9621 8.03751C15.6038 6.67917 13.9496 6.00001 11.9996 6.00001C10.0496 6.00001 8.39544 6.67917 7.03711 8.03751C5.67878 9.39584 4.99961 11.05 4.99961 13C4.99961 14.95 5.67878 16.6042 7.03711 17.9625C8.39544 19.3208 10.0496 20 11.9996 20Z" fill="#101010"/>
</g>
</svg>
