<svg width="143" height="55" viewBox="0 0 143 55" fill="none" xmlns="http://www.w3.org/2000/svg">
<path d="M129.003 46.7195C129.875 46.0497 130.733 45.4214 131.557 44.7516C134.22 42.5887 136.628 40.1967 138.403 37.2593C141.369 32.3508 140.567 25.9535 136.532 22.0715C134.745 20.3534 132.712 19.8122 130.334 20.6998C130.255 20.7298 130.172 20.7495 130.071 20.7796C129.562 19.8174 128.853 19.1123 127.601 18.9371C128.919 18.2165 130.206 17.7592 131.595 17.5996C134.529 17.2616 136.867 18.4114 138.814 20.4416C143.798 25.6341 144.387 33.3555 140.278 39.5051C138.059 42.8261 135.166 45.5209 131.98 47.9347C128.944 50.2334 125.702 52.2159 122.267 53.8914C122.05 53.9972 121.697 54.0449 121.498 53.9453C115.787 51.1209 110.533 47.6703 106.177 43.0345C104.147 40.8748 102.343 38.5377 101.459 35.6843C99.6275 29.7826 100.803 24.504 105.231 20.0714C107.959 17.3404 111.283 16.8396 114.863 18.3617C115.488 18.6281 116.086 18.9578 116.68 19.2513C116.401 19.6857 116.126 20.0486 115.924 20.4457C115.721 20.8439 115.592 21.2773 115.438 21.6754C114.693 21.3395 113.962 20.96 113.196 20.6738C111.04 19.8672 109.064 20.2394 107.422 21.803C103.858 25.1986 102.765 29.3191 103.868 34.0285C103.903 34.1767 103.957 34.3312 104.043 34.4567C106.157 37.5569 108.628 40.3294 111.842 42.3896C113.275 43.3083 114.848 43.9024 116.569 44.0766C116.779 44.0973 116.992 44.1056 117.203 44.0963C117.377 44.089 117.548 44.0486 117.742 43.9345C117.592 43.8868 117.441 43.8391 117.292 43.7904C115.042 43.0574 113.024 41.9562 111.486 40.1563C111.181 39.7985 110.998 39.277 110.925 38.8063C110.81 38.0431 111.469 37.5786 112.146 37.9716C115.079 39.671 118.395 40.1645 121.624 40.9422C122.512 41.1558 123.425 41.3434 124.256 41.7001C126.312 42.5835 127.746 44.1149 128.703 46.087C128.791 46.2716 128.878 46.4582 129.003 46.7195Z" fill="#50E678"/>
<path d="M115.914 38.1252C117.12 36.2018 118.449 34.5024 120.337 33.2873C121.702 32.408 123.059 32.407 124.369 33.3702C126.788 35.1494 128.371 37.5269 129.329 40.2974C129.601 41.0813 129.684 41.9408 129.743 42.7734C129.768 43.1435 129.516 43.5313 129.345 44.0456C129.041 43.6682 128.856 43.4266 128.658 43.1944C127.234 41.5188 125.451 40.4436 123.261 39.9615C121.01 39.4658 118.778 38.8811 116.54 38.3315C116.356 38.2869 116.179 38.2133 115.914 38.1252Z" fill="#50E678"/>
<path d="M123.522 25.9992C123.515 24.2023 124.025 22.5558 125.135 21.1239C125.487 20.6698 125.961 20.2644 126.461 19.9689C127.436 19.3934 128.44 19.663 129.095 20.5765C129.6 21.2784 129.797 22.084 129.842 22.9156C129.954 24.9426 129.479 26.8235 128.198 28.4503C127.872 28.864 127.441 29.2311 126.988 29.5079C125.982 30.1207 124.939 29.8646 124.265 28.9127C123.754 28.1901 123.526 27.2932 123.522 25.9992Z" fill="#50E678"/>
<path d="M115.99 23.9826C115.983 22.5673 116.152 21.5875 116.615 20.6751C117.478 18.9747 119.105 18.7486 120.401 20.1587C121.365 21.208 121.796 22.4979 122.008 23.8613C122.215 25.1906 122.18 26.5115 121.628 27.7703C121.265 28.5956 120.794 29.3701 119.779 29.5111C118.698 29.6615 117.982 29.0394 117.399 28.2555C116.362 26.8651 116.02 25.2652 115.99 23.9826Z" fill="#50E678"/>
<path d="M134.589 31.9799C134.472 33.6773 133.894 35.1454 132.774 36.4031C132.511 36.6986 132.2 36.9703 131.864 37.1818C130.366 38.1243 128.815 37.5997 128.306 35.9324C127.731 34.0464 128.124 32.2578 129.229 30.66C129.67 30.0234 130.283 29.4293 130.95 29.0301C132.209 28.2763 133.503 28.7201 134.091 30.0483C134.358 30.6496 134.429 31.334 134.589 31.9799Z" fill="#50E678"/>
<path d="M116.952 32.6413C116.713 33.3816 116.568 34.1769 116.207 34.8622C115.625 35.9654 114.39 36.2724 113.312 35.6171C111.266 34.3739 110.417 32.4744 110.473 30.186C110.49 29.4841 110.649 28.7303 110.958 28.1009C111.535 26.922 112.71 26.6162 113.912 27.2124C115.098 27.8002 115.805 28.8164 116.254 29.9787C116.573 30.8071 116.713 31.7009 116.952 32.6413Z" fill="#50E678"/>
<g clip-path="url(#clip0_27_622)">
<path d="M54.7781 14.7166L51.221 14.6889C50.4438 14.6828 49.7351 15.2232 49.5486 15.9777L48.2228 21.1074C47.9611 22.1662 48.8357 23.2831 49.9265 23.2831H52.4456C52.5716 23.2831 52.7645 23.3781 52.7026 23.6189L46.3804 48.2291C45.6733 51.0026 47.7688 53.7833 50.6309 53.7833H54.494C54.8896 53.7833 55.2724 53.6437 55.5751 53.3892C56.5408 52.5075 71.5771 40.6139 73.1392 40.6139C73.575 40.5768 74.0061 40.6012 74.424 40.735C75.3299 41.0256 75.8367 41.7014 76.1292 42.5602C76.4805 43.5954 76.848 44.6232 77.2957 45.622C77.9673 47.121 78.7758 48.5383 79.8217 49.8069C80.8677 51.0754 82.0989 52.1181 83.5972 52.8209C85.2855 53.6125 87.0674 53.8717 88.9146 53.7252C90.6118 53.5907 92.2381 53.1521 93.8189 52.5347C95.7928 51.763 97.6391 50.7488 99.4137 49.597C100.991 48.5673 102.507 47.4461 103.953 46.2391C104.382 45.8828 104.804 45.5204 105.222 45.1518C105.73 44.7102 106.198 43.9823 106.346 43.3907L106.587 42.425C106.891 41.2127 106.176 41.1693 105.879 41.3921C104.524 42.4007 103.155 43.3907 101.689 44.2355C100.367 44.9975 98.9894 45.6143 97.4515 45.7832C96.1462 45.9252 94.9824 45.6165 94.0145 44.6904C93.2217 43.9321 92.7229 42.9881 92.3155 41.9899C91.7865 40.6931 91.4417 39.3404 91.1187 37.9812C90.8887 37.0133 90.6748 36.0395 90.3958 35.0852C90.0406 33.8718 89.4943 32.7424 88.7145 31.7384C87.7924 30.5533 86.6181 29.7403 85.1507 29.3926C83.7115 29.0531 82.2893 29.1892 80.8921 29.6379C78.7447 30.3276 74.8888 33.5162 73.0177 35.0708C71.2974 36.5002 64.283 42.5565 60.7271 42.5565C59.6298 42.5565 58.8272 41.5215 59.1003 40.4588C61.1205 32.596 63.085 24.7536 63.4143 23.4658C63.4427 23.3545 63.5411 23.2833 63.6559 23.2831L69.1539 23.2677C69.9184 23.2655 70.5872 22.7208 70.7778 21.9805L72.0686 16.8162C72.3422 15.7534 71.5397 14.7181 70.4422 14.7181H66.0477C65.8832 14.7181 65.7628 14.563 65.8037 14.4035L69.1561 1.33258C69.3845 0.44224 68.6942 0.022379 68.236 0.0224609H61.9345C60.0451 0.0226483 58.4496 1.23998 57.9691 3.17133L55.0239 14.5279C54.9949 14.6397 54.8935 14.7174 54.7781 14.7166Z" fill="#7D1AD7"/>
<path d="M88.4982 11.7951C87.6446 12.3969 86.9993 13.2011 86.4333 14.066C85.7542 15.1037 84.7941 16.8206 84.097 18.5299C83.0877 21.0051 84.6094 23.3928 87.2822 23.3577C89.1041 23.3339 90.9229 23.0394 91.652 22.837C92.9556 22.475 94.1943 21.9671 95.3172 21.2146C96.9297 20.1352 97.7619 18.618 97.7073 16.6584C97.6786 15.6836 97.4143 14.7578 96.9642 13.8906C96.1138 12.2477 94.7912 11.1754 92.9852 10.7751C91.3472 10.4119 89.8502 10.8421 88.4982 11.7951Z" fill="#7D1AD7"/>
<path d="M43.7473 10.603C46.669 10.603 49.0375 8.23443 49.0375 5.31271C49.0375 2.39099 46.669 0.0224609 43.7473 0.0224609C40.8256 0.0224609 38.457 2.39099 38.457 5.31271C38.457 8.23443 40.8256 10.603 43.7473 10.603Z" fill="#7D1AD7"/>
<path d="M38.1698 14.76C36.2553 14.76 35.4581 16.2152 35.2988 16.9427L26.4977 51.1525C26.2038 52.295 26.9595 53.765 28.597 53.765H35.8604C36.5994 53.765 36.8539 53.2606 36.9295 52.9667L46.4788 15.8511C46.6948 15.0114 46.0212 14.76 45.6976 14.76H38.1698Z" fill="#7D1AD7"/>
<path d="M30.4089 16.0034C22.2244 12.338 6.05707 11.9538 0.754249 31.7656C-2.83242 45.1655 6.77709 58.9671 20.9976 52.5867C21.6694 52.3022 21.9633 51.6647 22.0473 51.2079L24.0206 43.5207C24.2305 42.7028 23.3069 42.167 22.6629 42.521C14.9257 46.7732 7.71435 41.4189 11.6287 31.8075C15.4781 22.3556 23.3523 23.7216 27.3795 25.9474C27.8749 26.2211 28.5711 26.0044 28.7231 25.3916L30.8368 16.8671C30.8872 16.6641 30.8644 16.2146 30.4089 16.0034Z" fill="#7D1AD7"/>
</g>
<defs>
<clipPath id="clip0_27_622">
<rect width="106.683" height="54.2032" fill="white"/>
</clipPath>
</defs>
</svg>
