<svg width="20" height="20" viewBox="0 0 20 20" fill="none" xmlns="http://www.w3.org/2000/svg">
<g clip-path="url(#clip0_27_864)">
<path d="M9.99937 19.31C15.1411 19.31 19.3093 15.1418 19.3093 10.0001C19.3093 9.56936 18.6637 9.49811 18.4408 9.86679C17.3811 11.6206 15.4564 12.7931 13.2579 12.7931C9.9157 12.7931 7.20637 10.0838 7.20637 6.74161C7.20637 4.54307 8.37891 2.61829 10.1327 1.55856C10.5014 1.33579 10.4301 0.690186 9.99937 0.690186C4.85766 0.690186 0.689453 4.85839 0.689453 10.0001C0.689453 15.1418 4.85766 19.31 9.99937 19.31Z" fill="#FFF370"/>
<path d="M17.355 0.976195C17.2052 0.594849 16.6675 0.594849 16.5176 0.976195L16.117 1.99586C16.0713 2.11232 15.9794 2.20447 15.8635 2.25038L14.8474 2.65255C14.4675 2.80289 14.4675 3.34257 14.8474 3.49298L15.8635 3.89515C15.9794 3.94107 16.0713 4.03322 16.117 4.14959L16.5176 5.16934C16.6675 5.5506 17.2052 5.5506 17.355 5.16934L17.7557 4.14959C17.8014 4.03322 17.8932 3.94107 18.0092 3.89515L19.0252 3.49298C19.4051 3.34257 19.4051 2.80289 19.0252 2.65255L18.0092 2.25038C17.8932 2.20447 17.8014 2.11232 17.7557 1.99586L17.355 0.976195Z" fill="#7D1AD7"/>
<path d="M13.7537 6.39661C13.6038 6.01526 13.0662 6.01526 12.9162 6.39661L12.7702 6.76837C12.7245 6.88483 12.6327 6.97698 12.5167 7.02289L12.1463 7.16951C11.7663 7.31993 11.7663 7.85953 12.1463 8.00994L12.5167 8.15656C12.6327 8.20248 12.7245 8.29463 12.7702 8.41108L12.9162 8.78285C13.0662 9.16419 13.6038 9.16419 13.7537 8.78285L13.8997 8.41108C13.9455 8.29463 14.0372 8.20248 14.1533 8.15656L14.5237 8.00994C14.9036 7.85953 14.9036 7.31993 14.5237 7.16951L14.1533 7.02289C14.0372 6.97698 13.9455 6.88483 13.8997 6.76837L13.7537 6.39661Z" fill="#7D1AD7"/>
</g>
<defs>
<clipPath id="clip0_27_864">
<rect width="20" height="20" fill="white"/>
</clipPath>
</defs>
</svg>
