<svg width="19" height="20" viewBox="0 0 19 20" fill="none" xmlns="http://www.w3.org/2000/svg">
<path d="M9.19742 6.74715C9.19742 8.48169 7.79126 9.88785 6.05672 9.88785C4.32217 9.88785 2.91602 8.48169 2.91602 6.74715C2.91602 5.0126 4.32209 3.60645 6.05672 3.60645C7.79134 3.60645 9.19742 5.01252 9.19742 6.74715Z" fill="#FFDD00"/>
<path fill-rule="evenodd" clip-rule="evenodd" d="M5.6084 0.689941C5.98009 0.689941 6.28148 0.99125 6.28148 1.36294V1.81165C6.28148 2.18334 5.98009 2.48465 5.6084 2.48465C5.23672 2.48465 4.93541 2.18334 4.93541 1.81165V1.36294C4.93541 0.99125 5.23672 0.689941 5.6084 0.689941ZM1.64295 2.33265C1.90578 2.06982 2.33185 2.06982 2.59469 2.33265L2.78857 2.52653C3.0514 2.78936 3.0514 3.21544 2.78857 3.47827C2.52573 3.7411 2.09966 3.7411 1.83682 3.47827L1.64295 3.28439C1.38011 3.02156 1.38011 2.59548 1.64295 2.33265ZM9.57386 2.33273C9.8367 2.59556 9.8367 3.02172 9.57386 3.28455L9.3799 3.47843C9.11707 3.74126 8.691 3.74126 8.42816 3.47843C8.16533 3.2156 8.16533 2.78944 8.42816 2.52661L8.62204 2.33273C8.88488 2.0699 9.31103 2.0699 9.57386 2.33273ZM0 6.29835C0 5.92666 0.301308 5.62535 0.672996 5.62535H1.12171C1.4934 5.62535 1.79471 5.92666 1.79471 6.29835C1.79471 6.67003 1.4934 6.97142 1.12171 6.97142H0.672996C0.301308 6.97142 0 6.67003 0 6.29835ZM2.78857 9.1185C3.0514 9.38133 3.0514 9.80749 2.78857 10.0703L2.59469 10.2641C2.33185 10.527 1.90578 10.527 1.64295 10.2641C1.38011 10.0013 1.38011 9.57513 1.64295 9.31238L1.83682 9.1185C2.09966 8.85567 2.52573 8.85567 2.78857 9.1185Z" fill="#FFDD00"/>
<path d="M13.4931 19.31C16.3251 19.31 18.6208 17.0412 18.6208 14.2425C18.6208 12.0245 17.1788 10.1392 15.1706 9.45262C14.8853 6.92095 12.7126 4.95239 10.0746 4.95239C7.24268 4.95239 4.94693 7.22115 4.94693 10.0198C4.94693 10.6388 5.05927 11.2319 5.26486 11.7802C5.02372 11.7334 4.77458 11.7089 4.51967 11.7089C2.39562 11.7089 0.673828 13.4105 0.673828 15.5094C0.673828 17.6085 2.39562 19.31 4.51959 19.31H13.4931Z" fill="#507BE6"/>
</svg>
