<svg width="19" height="20" viewBox="0 0 19 20" fill="none" xmlns="http://www.w3.org/2000/svg">
<path d="M2.59766 16.0624C2.59766 15.7037 2.88844 15.4128 3.24714 15.4128H15.3718C15.7305 15.4128 16.0213 15.7037 16.0213 16.0624C16.0213 16.4211 15.7305 16.7119 15.3718 16.7119H3.24714C2.88844 16.7119 2.59766 16.4211 2.59766 16.0624Z" fill="#FFB300"/>
<path d="M3.46484 9.99988C3.46484 11.0199 3.72649 11.9795 4.18597 12.8145H14.4353C14.8948 11.9795 15.1565 11.0199 15.1565 9.99988C15.1565 6.7713 12.5392 4.15405 9.31067 4.15405C6.08209 4.15405 3.46484 6.7713 3.46484 9.99988Z" fill="#FFB300"/>
<path fill-rule="evenodd" clip-rule="evenodd" d="M5.19531 18.6605C5.19531 18.3018 5.48617 18.011 5.84487 18.011H12.7732C13.1319 18.011 13.4228 18.3018 13.4228 18.6605C13.4228 19.0192 13.1319 19.31 12.7732 19.31H5.84487C5.48617 19.31 5.19531 19.0193 5.19531 18.6605Z" fill="#FFB300"/>
<path fill-rule="evenodd" clip-rule="evenodd" d="M9.31 0.689941C9.6687 0.689941 9.95956 0.980721 9.95956 1.3395V2.20551C9.95956 2.56421 9.6687 2.85507 9.31 2.85507C8.9513 2.85507 8.66044 2.56421 8.66044 2.20551V1.3395C8.66044 0.980721 8.9513 0.689941 9.31 0.689941ZM0 9.99994C0 9.64124 0.290779 9.35038 0.649562 9.35038H1.51557C1.87427 9.35038 2.16513 9.64124 2.16513 9.99994C2.16513 10.3586 1.87427 10.6495 1.51557 10.6495H0.649562C0.290779 10.6495 0 10.3586 0 9.99994ZM16.4549 9.99994C16.4549 9.64124 16.7457 9.35038 17.1044 9.35038H17.9704C18.3292 9.35038 18.62 9.64124 18.62 9.99994C18.62 10.3586 18.3292 10.6495 17.9704 10.6495H17.1044C16.7457 10.6495 16.4549 10.3586 16.4549 9.99994Z" fill="#FFB300"/>
<path fill-rule="evenodd" clip-rule="evenodd" d="M4.1853 12.8145H0.649562C0.290779 12.8145 0 13.1053 0 13.464C0 13.8227 0.290779 14.1136 0.649562 14.1136H17.9704C18.3292 14.1136 18.62 13.8227 18.62 13.464C18.62 13.1053 18.3292 12.8145 17.9704 12.8145H4.1853Z" fill="#FFB300"/>
<path d="M2.72735 3.41656C2.981 3.16291 3.39227 3.16291 3.64592 3.41656L3.9861 3.75674C4.23975 4.01039 4.23975 4.42166 3.9861 4.67531C3.73245 4.92896 3.32118 4.92896 3.06753 4.67531L2.72735 4.33513C2.4737 4.08148 2.4737 3.67021 2.72735 3.41656Z" fill="#FFB300"/>
<path d="M15.8944 3.41656C16.148 3.67021 16.148 4.08148 15.8944 4.33513L15.5542 4.67531C15.3005 4.92896 14.8893 4.92896 14.6356 4.67531C14.3819 4.42166 14.3819 4.01039 14.6356 3.75674L14.9758 3.41656C15.2294 3.16291 15.6407 3.16291 15.8944 3.41656Z" fill="#FFB300"/>
</svg>
